<?xml version="1.0" encoding="utf-8"?>
<!-- Generator: Adobe Illustrator 21.0.0, SVG Export Plug-In . SVG Version: 6.00 Build 0)  -->
<svg version="1.1" xmlns="http://www.w3.org/2000/svg" xmlns:xlink="http://www.w3.org/1999/xlink" x="0px" y="0px"
	 viewBox="0 0 283.5 283.5" style="enable-background:new 0 0 283.5 283.5;" xml:space="preserve">
<style type="text/css">
	.st0{display:none;}
	.st1{display:inline;fill:none;stroke:#000000;stroke-width:3;stroke-miterlimit:10;}
	.st2{fill:none;stroke:#000000;stroke-width:3;stroke-linecap:round;stroke-linejoin:round;stroke-miterlimit:10;}
</style>
<g id="Calque_1" class="st0">
	<rect x="29.5" y="63" class="st1" width="223.5" height="150.5"/>
</g>
<g id="reperes">
</g>
<g id="Calque_4">
	<g>
		<g id="Calque_3_1_">
			<path class="st2" d="M58.9,155.3c0-71.4,36.6-99,82.9-99s84.8,27.6,84.8,99"/>
		</g>
		<path class="st2" d="M71.1,220.5c-18,0-32.6-14.6-32.6-32.6s14.6-32.6,32.6-32.6"/>
		<path class="st2" d="M89.7,187.9c0,21.9,2.1,39.6-8.2,39.6S63,209.8,63,187.9s8.3-39.6,18.6-39.6S89.7,166,89.7,187.9z"/>
		<path class="st2" d="M213.4,220.5c18,0,32.6-14.6,32.6-32.6s-14.6-32.6-32.6-32.6"/>
		<path class="st2" d="M194.8,187.9c0,21.9-2.1,39.6,8.2,39.6s18.6-17.7,18.6-39.6s-8.3-39.6-18.6-39.6S194.8,166,194.8,187.9z"/>
	</g>
</g>
<g id="Calque_3">
</g>
</svg>
