<?xml version="1.0" encoding="utf-8"?>
<!-- Generator: Adobe Illustrator 21.0.0, SVG Export Plug-In . SVG Version: 6.00 Build 0)  -->
<svg version="1.1" xmlns="http://www.w3.org/2000/svg" xmlns:xlink="http://www.w3.org/1999/xlink" x="0px" y="0px"
	 viewBox="0 0 283.5 283.5" style="enable-background:new 0 0 283.5 283.5;" xml:space="preserve">
<style type="text/css">
	.st0{display:none;}
	.st1{display:inline;fill:none;stroke:#000000;stroke-width:3;stroke-miterlimit:10;}
	.st2{fill:none;stroke:#000000;stroke-width:3;stroke-linecap:round;stroke-linejoin:round;stroke-miterlimit:10;}
</style>
<g id="Calque_1" class="st0">
	<rect x="29.5" y="63" class="st1" width="223.5" height="150.5"/>
</g>
<g id="reperes">
</g>
<g id="Calque_4">
	<g>
		<path class="st2" d="M89.5,224c0-30.7,23.7-55.5,53-55.5s53,24.8,53,55.5"/>
		<circle class="st2" cx="142.5" cy="141.5" r="27"/>
	</g>
</g>
<g id="Calque_3">
	<g>
		<path class="st2" d="M114.1,150c1.4,1,2.7,2,4,3.1"/>
		<path class="st2" d="M31.5,196c0-30.7,23.7-55.5,53-55.5c11,0,21.2,3.5,29.6,9.5"/>
		<circle class="st2" cx="84.5" cy="113.5" r="27"/>
	</g>
	<g>
		<path class="st2" d="M168.4,150.3c8.5-6.2,18.9-9.8,30.1-9.8c29.3,0,53,24.8,53,55.5"/>
		<circle class="st2" cx="198.5" cy="113.5" r="27"/>
	</g>
</g>
</svg>
